<svg width="26" height="25" viewBox="0 0 26 25" fill="none" xmlns="http://www.w3.org/2000/svg">
<path fill-rule="evenodd" clip-rule="evenodd" d="M0 12.5C0 5.59625 5.76673 0 12.8808 0C19.9949 0 25.7616 5.59625 25.7616 12.5C25.7616 19.4037 19.9949 25 12.8808 25C5.76673 25 0 19.4037 0 12.5ZM12.8808 2.5C10.1478 2.5 7.52681 3.55357 5.59432 5.42893C3.66182 7.3043 2.57616 9.84784 2.57616 12.5C2.57616 15.1522 3.66182 17.6957 5.59432 19.5711C7.52681 21.4464 10.1478 22.5 12.8808 22.5C15.6138 22.5 18.2348 21.4464 20.1673 19.5711C22.0998 17.6957 23.1854 15.1522 23.1854 12.5C23.1854 9.84784 22.0998 7.3043 20.1673 5.42893C18.2348 3.55357 15.6138 2.5 12.8808 2.5Z" fill="#073E5A"/>
<path fill-rule="evenodd" clip-rule="evenodd" d="M14.1689 6.25C14.1689 5.91848 14.0332 5.60054 13.7916 5.36612C13.5501 5.1317 13.2224 5 12.8808 5C12.5392 5 12.2116 5.1317 11.97 5.36612C11.7284 5.60054 11.5927 5.91848 11.5927 6.25V11.25H6.44042C6.0988 11.25 5.77118 11.3817 5.52961 11.6161C5.28805 11.8505 5.15234 12.1685 5.15234 12.5C5.15234 12.8315 5.28805 13.1495 5.52961 13.3839C5.77118 13.6183 6.0988 13.75 6.44042 13.75H11.5927V18.75C11.5927 19.0815 11.7284 19.3995 11.97 19.6339C12.2116 19.8683 12.5392 20 12.8808 20C13.2224 20 13.5501 19.8683 13.7916 19.6339C14.0332 19.3995 14.1689 19.0815 14.1689 18.75V13.75H19.3212C19.6628 13.75 19.9905 13.6183 20.232 13.3839C20.4736 13.1495 20.6093 12.8315 20.6093 12.5C20.6093 12.1685 20.4736 11.8505 20.232 11.6161C19.9905 11.3817 19.6628 11.25 19.3212 11.25H14.1689V6.25Z" fill="#073E5A"/>
</svg>
