<svg width="24" height="24" viewBox="0 0 24 24" fill="none" xmlns="http://www.w3.org/2000/svg">
<path fill-rule="evenodd" clip-rule="evenodd" d="M12.0001 7.49999C9.51477 7.49999 7.50005 9.51471 7.50005 12C7.50005 14.4853 9.51477 16.5 12.0001 16.5C14.4853 16.5 16.5001 14.4853 16.5001 12C16.4975 9.51578 14.4843 7.50257 12.0001 7.49999ZM12.0001 15C10.3432 15 9.00005 13.6568 9.00005 12C9.00005 10.3431 10.3432 8.99999 12.0001 8.99999C13.6569 8.99999 15.0001 10.3431 15.0001 12C15.0001 13.6568 13.6569 15 12.0001 15ZM20.2501 12.2025C20.2538 12.0675 20.2538 11.9325 20.2501 11.7975L21.6488 10.05C21.7975 9.86392 21.849 9.61826 21.7876 9.38811C21.5582 8.52618 21.2152 7.6986 20.7676 6.92718C20.6487 6.72248 20.4402 6.58591 20.2051 6.55874L17.9813 6.31124C17.8888 6.21374 17.7951 6.11999 17.7001 6.02999L17.4376 3.80061C17.4102 3.5653 17.2732 3.35675 17.0682 3.23811C16.2965 2.79125 15.4689 2.44858 14.6072 2.21905C14.3769 2.15783 14.1313 2.20968 13.9454 2.35874L12.2026 3.74999C12.0676 3.74999 11.9326 3.74999 11.7976 3.74999L10.0501 2.35405C9.86398 2.20532 9.61832 2.15382 9.38818 2.2153C8.52638 2.44502 7.69885 2.78801 6.92724 3.2353C6.72254 3.35416 6.58597 3.56267 6.5588 3.7978L6.3113 6.0253C6.2138 6.11843 6.12005 6.21218 6.03005 6.30655L3.80068 6.56249C3.56536 6.58987 3.35682 6.72681 3.23818 6.93186C2.79131 7.70358 2.44865 8.53109 2.21911 9.3928C2.15789 9.62309 2.20974 9.86877 2.3588 10.0547L3.75005 11.7975C3.75005 11.9325 3.75005 12.0675 3.75005 12.2025L2.35411 13.95C2.20538 14.1361 2.15388 14.3817 2.21536 14.6119C2.44467 15.4738 2.78768 16.3014 3.23536 17.0728C3.35422 17.2775 3.56273 17.4141 3.79786 17.4412L6.02161 17.6887C6.11474 17.7862 6.20849 17.88 6.30286 17.97L6.56255 20.1994C6.58993 20.4347 6.72687 20.6432 6.93193 20.7619C7.70364 21.2087 8.53115 21.5514 9.39286 21.7809C9.62315 21.8422 9.86883 21.7903 10.0547 21.6412L11.7976 20.25C11.9326 20.2537 12.0676 20.2537 12.2026 20.25L13.9501 21.6487C14.1361 21.7975 14.3818 21.849 14.6119 21.7875C15.4739 21.5582 16.3014 21.2152 17.0729 20.7675C17.2776 20.6486 17.4141 20.4401 17.4413 20.205L17.6888 17.9812C17.7863 17.8887 17.88 17.795 17.97 17.7L20.1994 17.4375C20.4347 17.4101 20.6433 17.2732 20.7619 17.0681C21.2088 16.2964 21.5515 15.4689 21.781 14.6072C21.8422 14.3769 21.7904 14.1312 21.6413 13.9453L20.2501 12.2025ZM18.7407 11.5931C18.7566 11.8641 18.7566 12.1358 18.7407 12.4069C18.7295 12.5924 18.7876 12.7755 18.9038 12.9206L20.2341 14.5828C20.0815 15.0679 19.886 15.5385 19.6501 15.9891L17.5313 16.2291C17.3468 16.2495 17.1764 16.3377 17.0532 16.4766C16.8727 16.6795 16.6805 16.8717 16.4776 17.0522C16.3387 17.1754 16.2505 17.3458 16.2301 17.5303L15.9947 19.6472C15.5443 19.8832 15.0737 20.0787 14.5885 20.2312L12.9254 18.9009C12.7923 18.7946 12.627 18.7367 12.4566 18.7369H12.4116C12.1406 18.7528 11.8689 18.7528 11.5979 18.7369C11.4123 18.7257 11.2292 18.7838 11.0841 18.9L9.41724 20.2312C8.93211 20.0786 8.46151 19.8831 8.01099 19.6472L7.77099 17.5312C7.75051 17.3467 7.66232 17.1764 7.52349 17.0531C7.32053 16.8727 7.12832 16.6805 6.94786 16.4775C6.82461 16.3387 6.65425 16.2505 6.46974 16.23L4.35286 15.9937C4.11679 15.5433 3.92133 15.0727 3.7688 14.5875L5.09911 12.9244C5.21527 12.7792 5.27341 12.5962 5.26224 12.4106C5.2463 12.1396 5.2463 11.8679 5.26224 11.5969C5.27341 11.4113 5.21527 11.2282 5.09911 11.0831L3.7688 9.41718C3.92145 8.93205 4.11691 8.46145 4.35286 8.01093L6.4688 7.77093C6.65331 7.75045 6.82368 7.66226 6.94693 7.52343C7.12739 7.32047 7.31959 7.12826 7.52255 6.9478C7.66193 6.82447 7.75048 6.65372 7.77099 6.46874L8.0063 4.3528C8.45677 4.11673 8.92738 3.92127 9.41255 3.76874L11.0757 5.09905C11.2208 5.21521 11.4039 5.27335 11.5894 5.26218C11.8604 5.24624 12.1322 5.24624 12.4032 5.26218C12.5887 5.27335 12.7718 5.21521 12.9169 5.09905L14.5829 3.76874C15.068 3.92139 15.5386 4.11684 15.9891 4.3528L16.2291 6.46874C16.2496 6.65325 16.3378 6.82361 16.4766 6.94686C16.6796 7.12732 16.8718 7.31953 17.0522 7.52249C17.1755 7.66132 17.3458 7.74951 17.5304 7.76999L19.6472 8.0053C19.8833 8.45577 20.0788 8.92638 20.2313 9.41155L18.901 11.0747C18.7837 11.221 18.7255 11.406 18.7379 11.5931H18.7407Z" fill="#121417"/>
</svg>
