<svg width="32" height="32" viewBox="0 0 32 32" fill="none" xmlns="http://www.w3.org/2000/svg">
<path d="M9.33301 9.33337H7.99967C7.29243 9.33337 6.61415 9.61433 6.11406 10.1144C5.61396 10.6145 5.33301 11.2928 5.33301 12V24C5.33301 24.7073 5.61396 25.3856 6.11406 25.8857C6.61415 26.3858 7.29243 26.6667 7.99967 26.6667H19.9997C20.7069 26.6667 21.3852 26.3858 21.8853 25.8857C22.3854 25.3856 22.6663 24.7073 22.6663 24V22.6667" stroke="#6B7582" stroke-width="2" stroke-linecap="round" stroke-linejoin="round"/>
<path d="M21.3333 6.66669L25.3333 10.6667M27.18 8.78002C27.7051 8.25489 28.0001 7.54266 28.0001 6.80002C28.0001 6.05738 27.7051 5.34515 27.18 4.82002C26.6549 4.29489 25.9426 3.99988 25.2 3.99988C24.4574 3.99988 23.7451 4.29489 23.22 4.82002L12 16V20H16L27.18 8.78002Z" stroke="#6B7582" stroke-width="2" stroke-linecap="round" stroke-linejoin="round"/>
</svg>
