<svg width="20" height="20" viewBox="0 0 20 20" fill="none" xmlns="http://www.w3.org/2000/svg">
<path fill-rule="evenodd" clip-rule="evenodd" d="M17.3282 13.7453C16.8946 12.9984 16.2501 10.8852 16.2501 8.125C16.2501 4.67322 13.4519 1.875 10.0001 1.875C6.54829 1.875 3.75007 4.67322 3.75007 8.125C3.75007 10.8859 3.10476 12.9984 2.67116 13.7453C2.44579 14.1318 2.44415 14.6092 2.66687 14.9973C2.88958 15.3853 3.30268 15.6247 3.75007 15.625H6.93835C7.23563 17.0796 8.51537 18.1243 10.0001 18.1243C11.4848 18.1243 12.7645 17.0796 13.0618 15.625H16.2501C16.6973 15.6244 17.1102 15.3849 17.3327 14.9969C17.5552 14.609 17.5535 14.1317 17.3282 13.7453ZM10.0001 16.875C9.20569 16.8748 8.49768 16.3739 8.23288 15.625H11.7673C11.5025 16.3739 10.7945 16.8748 10.0001 16.875ZM3.75007 14.375C4.35163 13.3406 5.00007 10.9437 5.00007 8.125C5.00007 5.36358 7.23865 3.125 10.0001 3.125C12.7615 3.125 15.0001 5.36358 15.0001 8.125C15.0001 10.9414 15.6469 13.3383 16.2501 14.375H3.75007Z" fill="#121417"/>
</svg>
