<svg width="21" height="23" viewBox="0 0 21 23" fill="none" xmlns="http://www.w3.org/2000/svg">
<g clip-path="url(#clip0_617_894)">
<path d="M1.4375 20.8438C1.4375 21.4156 1.66468 21.9641 2.06905 22.3685C2.47343 22.7728 3.02188 23 3.59375 23H16.5312C17.1031 23 17.6516 22.7728 18.056 22.3685C18.4603 21.9641 18.6875 21.4156 18.6875 20.8438V5.75001H1.4375V20.8438ZM13.6562 9.34376C13.6562 9.15313 13.732 8.97032 13.8668 8.83552C14.0016 8.70073 14.1844 8.62501 14.375 8.62501C14.5656 8.62501 14.7484 8.70073 14.8832 8.83552C15.018 8.97032 15.0938 9.15313 15.0938 9.34376V19.4063C15.0938 19.5969 15.018 19.7797 14.8832 19.9145C14.7484 20.0493 14.5656 20.125 14.375 20.125C14.1844 20.125 14.0016 20.0493 13.8668 19.9145C13.732 19.7797 13.6562 19.5969 13.6562 19.4063V9.34376ZM9.34375 9.34376C9.34375 9.15313 9.41948 8.97032 9.55427 8.83552C9.68906 8.70073 9.87188 8.62501 10.0625 8.62501C10.2531 8.62501 10.4359 8.70073 10.5707 8.83552C10.7055 8.97032 10.7812 9.15313 10.7812 9.34376V19.4063C10.7812 19.5969 10.7055 19.7797 10.5707 19.9145C10.4359 20.0493 10.2531 20.125 10.0625 20.125C9.87188 20.125 9.68906 20.0493 9.55427 19.9145C9.41948 19.7797 9.34375 19.5969 9.34375 19.4063V9.34376ZM5.03125 9.34376C5.03125 9.15313 5.10698 8.97032 5.24177 8.83552C5.37656 8.70073 5.55938 8.62501 5.75 8.62501C5.94062 8.62501 6.12344 8.70073 6.25823 8.83552C6.39302 8.97032 6.46875 9.15313 6.46875 9.34376V19.4063C6.46875 19.5969 6.39302 19.7797 6.25823 19.9145C6.12344 20.0493 5.94062 20.125 5.75 20.125C5.55938 20.125 5.37656 20.0493 5.24177 19.9145C5.10698 19.7797 5.03125 19.5969 5.03125 19.4063V9.34376ZM19.4062 1.43751H14.0156L13.5934 0.597469C13.5039 0.417877 13.3661 0.266809 13.1955 0.161259C13.0249 0.0557084 12.8282 -0.000136022 12.6275 7.87603e-06H7.49297C7.29279 -0.00076166 7.09644 0.0548746 6.92642 0.160542C6.75639 0.26621 6.61958 0.417635 6.53164 0.597469L6.10938 1.43751H0.71875C0.528126 1.43751 0.345309 1.51323 0.210517 1.64802C0.0757252 1.78282 0 1.96563 0 2.15626L0 3.59376C0 3.78438 0.0757252 3.9672 0.210517 4.10199C0.345309 4.23678 0.528126 4.31251 0.71875 4.31251H19.4062C19.5969 4.31251 19.7797 4.23678 19.9145 4.10199C20.0493 3.9672 20.125 3.78438 20.125 3.59376V2.15626C20.125 1.96563 20.0493 1.78282 19.9145 1.64802C19.7797 1.51323 19.5969 1.43751 19.4062 1.43751Z" fill="#BE0000"/>
</g>
<defs>
<clipPath id="clip0_617_894">
<rect width="20.125" height="23" fill="white"/>
</clipPath>
</defs>
</svg>
